{
    "asset" : {
        "generator" : "Khronos glTF Blender I/O v1.3.48",
        "version" : "2.0"
    },
    "scene" : 0,
    "scenes" : [
        {
            "name" : "Scene",
            "nodes" : [
                0
            ]
        }
    ],
    "nodes" : [
        {
            "mesh" : 0,
            "name" : "c3ae9caa79eb53d3ea6f1264c2d86b31_c3ae9caa79eb53d3ea6f1264c2d86b",
            "rotation" : [
                0.7071068286895752,
                0,
                0,
                0.7071067094802856
            ]
        }
    ],
    "materials" : [
        {
            "doubleSided" : true,
            "emissiveFactor" : [
                0,
                0,
                0
            ],
            "name" : "Default_OBJ.007",
            "pbrMetallicRoughness" : {
                "baseColorFactor" : [
                    0.800000011920929,
                    0.004217999987304211,
                    0,
                    1
                ],
                "metallicFactor" : 0,
                "roughnessFactor" : 0.5
            }
        }
    ],
    "meshes" : [
        {
            "name" : "c3ae9caa79eb53d3ea6f1264c2d86b31_c3ae9caa79eb53d3ea6f1264c2d86b",
            "primitives" : [
                {
                    "attributes" : {
                        "POSITION" : 0,
                        "NORMAL" : 1
                    },
                    "indices" : 2,
                    "material" : 0
                }
            ]
        }
    ],
    "accessors" : [
        {
            "bufferView" : 0,
            "componentType" : 5126,
            "count" : 68818,
            "max" : [
                22.64697265625,
                22.69672966003418,
                15.304758071899414
            ],
            "min" : [
                -22.472396850585938,
                -22.543846130371094,
                -11.951387405395508
            ],
            "type" : "VEC3"
        },
        {
            "bufferView" : 1,
            "componentType" : 5126,
            "count" : 68818,
            "type" : "VEC3"
        },
        {
            "bufferView" : 2,
            "componentType" : 5125,
            "count" : 80547,
            "type" : "SCALAR"
        }
    ],
    "bufferViews" : [
        {
            "buffer" : 0,
            "byteLength" : 825816,
            "byteOffset" : 0
        },
        {
            "buffer" : 0,
            "byteLength" : 825816,
            "byteOffset" : 825816
        },
        {
            "buffer" : 0,
            "byteLength" : 322188,
            "byteOffset" : 1651632
        }
    ],
    "buffers" : [
        {
            "byteLength" : 1973820,
            "uri" : "data:application/octet-stream;base64,"
        }
    ]
}
