{
    "asset" : {
        "generator" : "Khronos glTF Blender I/O v1.3.48",
        "version" : "2.0"
    },
    "scene" : 0,
    "scenes" : [
        {
            "name" : "Scene",
            "nodes" : [
                0
            ]
        }
    ],
    "nodes" : [
        {
            "mesh" : 0,
            "name" : "fish soup.001",
            "rotation" : [
                0,
                -0.66728675365448,
                0,
                0.7448009252548218
            ],
            "scale" : [
                1.1823588609695435,
                0.43006688356399536,
                1.1823588609695435
            ],
            "translation" : [
                -0.06604623794555664,
                0.8457949161529541,
                0.0017600059509277344
            ]
        }
    ],
    "materials" : [
        {
            "doubleSided" : true,
            "name" : "Material.053",
            "pbrMetallicRoughness" : {}
        }
    ],
    "meshes" : [
        {
            "name" : "Cylinder.027",
            "primitives" : [
                {
                    "attributes" : {
                        "POSITION" : 0,
                        "NORMAL" : 1,
                        "TEXCOORD_0" : 2
                    },
                    "indices" : 3,
                    "material" : 0
                },
                {
                    "attributes" : {
                        "POSITION" : 4,
                        "NORMAL" : 5,
                        "TEXCOORD_0" : 6
                    },
                    "indices" : 7
                }
            ]
        }
    ],
    "accessors" : [
        {
            "bufferView" : 0,
            "componentType" : 5126,
            "count" : 11,
            "max" : [
                1.2478978633880615,
                0.35979026556015015,
                1.2486190795898438
            ],
            "min" : [
                -1.2478978633880615,
                -0.35979026556015015,
                -1.2486190795898438
            ],
            "type" : "VEC3"
        },
        {
            "bufferView" : 1,
            "componentType" : 5126,
            "count" : 11,
            "type" : "VEC3"
        },
        {
            "bufferView" : 2,
            "componentType" : 5126,
            "count" : 11,
            "type" : "VEC2"
        },
        {
            "bufferView" : 3,
            "componentType" : 5123,
            "count" : 30,
            "type" : "SCALAR"
        },
        {
            "bufferView" : 4,
            "componentType" : 5126,
            "count" : 101,
            "max" : [
                1.4138201475143433,
                0.6963529586791992,
                1.4389861822128296
            ],
            "min" : [
                -1.4383829832077026,
                -1.527644157409668,
                -1.4155744314193726
            ],
            "type" : "VEC3"
        },
        {
            "bufferView" : 5,
            "componentType" : 5126,
            "count" : 101,
            "type" : "VEC3"
        },
        {
            "bufferView" : 6,
            "componentType" : 5126,
            "count" : 101,
            "type" : "VEC2"
        },
        {
            "bufferView" : 7,
            "componentType" : 5123,
            "count" : 210,
            "type" : "SCALAR"
        }
    ],
    "bufferViews" : [
        {
            "buffer" : 0,
            "byteLength" : 132,
            "byteOffset" : 0
        },
        {
            "buffer" : 0,
            "byteLength" : 132,
            "byteOffset" : 132
        },
        {
            "buffer" : 0,
            "byteLength" : 88,
            "byteOffset" : 264
        },
        {
            "buffer" : 0,
            "byteLength" : 60,
            "byteOffset" : 352
        },
        {
            "buffer" : 0,
            "byteLength" : 1212,
            "byteOffset" : 412
        },
        {
            "buffer" : 0,
            "byteLength" : 1212,
            "byteOffset" : 1624
        },
        {
            "buffer" : 0,
            "byteLength" : 808,
            "byteOffset" : 2836
        },
        {
            "buffer" : 0,
            "byteLength" : 420,
            "byteOffset" : 3644
        }
    ],
    "buffers" : [
        {
            "byteLength" : 4064,
            "uri" : "data:application/octet-stream;base64,"
        }
    ]
}
